<svg width="225" height="37" viewBox="0 0 225 37" fill="none" xmlns="http://www.w3.org/2000/svg">
<path d="M31.8352 13.3125H24.3693C24.233 12.3466 23.9545 11.4886 23.5341 10.7386C23.1136 9.97727 22.5739 9.32954 21.9148 8.79545C21.2557 8.26136 20.4943 7.85227 19.6307 7.56818C18.7784 7.28409 17.8523 7.14205 16.8523 7.14205C15.0455 7.14205 13.4716 7.59091 12.1307 8.48864C10.7898 9.375 9.75 10.6705 9.01136 12.375C8.27273 14.0682 7.90341 16.125 7.90341 18.5455C7.90341 21.0341 8.27273 23.125 9.01136 24.8182C9.76136 26.5114 10.8068 27.7898 12.1477 28.6534C13.4886 29.517 15.0398 29.9489 16.8011 29.9489C17.7898 29.9489 18.7045 29.8182 19.5455 29.5568C20.3977 29.2955 21.1534 28.9148 21.8125 28.4148C22.4716 27.9034 23.017 27.2841 23.4489 26.5568C23.892 25.8295 24.1989 25 24.3693 24.0682L31.8352 24.1023C31.642 25.7045 31.1591 27.25 30.3864 28.7386C29.625 30.2159 28.5966 31.5398 27.3011 32.7102C26.017 33.8693 24.483 34.7898 22.6989 35.4716C20.9261 36.142 18.9205 36.4773 16.6818 36.4773C13.5682 36.4773 10.7841 35.7727 8.32955 34.3636C5.88636 32.9545 3.95455 30.9148 2.53409 28.2443C1.125 25.5739 0.420455 22.3409 0.420455 18.5455C0.420455 14.7386 1.13636 11.5 2.56818 8.82955C4 6.15909 5.94318 4.125 8.39773 2.72727C10.8523 1.31818 13.6136 0.613635 16.6818 0.613635C18.7045 0.613635 20.5795 0.897726 22.3068 1.46591C24.0455 2.03409 25.5852 2.86364 26.9261 3.95454C28.267 5.03409 29.358 6.35795 30.1989 7.92614C31.0511 9.49432 31.5966 11.2898 31.8352 13.3125ZM41.8528 1.09091V36H34.5915V1.09091H41.8528ZM57.2014 36.5114C54.5082 36.5114 52.1901 35.9659 50.2469 34.875C48.3151 33.7727 46.8264 32.2159 45.781 30.2045C44.7355 28.1818 44.2128 25.7898 44.2128 23.0284C44.2128 20.3352 44.7355 17.9716 45.781 15.9375C46.8264 13.9034 48.298 12.3182 50.1957 11.1818C52.1048 10.0455 54.3435 9.47727 56.9116 9.47727C58.6389 9.47727 60.2469 9.75568 61.7355 10.3125C63.2355 10.858 64.5423 11.6818 65.656 12.7841C66.781 13.8864 67.656 15.2727 68.281 16.9432C68.906 18.6023 69.2185 20.5455 69.2185 22.7727V24.767H47.1105V20.267H62.3832C62.3832 19.2216 62.156 18.2955 61.7014 17.4886C61.2469 16.6818 60.6162 16.0511 59.8094 15.5966C59.0139 15.1307 58.0878 14.8977 57.031 14.8977C55.9287 14.8977 54.9514 15.1534 54.0991 15.6648C53.2582 16.1648 52.5991 16.8409 52.1219 17.6932C51.6446 18.5341 51.4003 19.4716 51.3889 20.5057V24.7841C51.3889 26.0795 51.6276 27.1989 52.1048 28.142C52.5935 29.0852 53.281 29.8125 54.1673 30.3239C55.0537 30.8352 56.1048 31.0909 57.3207 31.0909C58.1276 31.0909 58.8662 30.9773 59.5366 30.75C60.2071 30.5227 60.781 30.1818 61.2582 29.7273C61.7355 29.2727 62.0991 28.7159 62.3491 28.0568L69.0651 28.5C68.7241 30.1136 68.0253 31.5227 66.9685 32.7273C65.923 33.9205 64.5707 34.8523 62.9116 35.5227C61.2639 36.1818 59.3605 36.5114 57.2014 36.5114ZM79.023 36.4943C77.3526 36.4943 75.8639 36.2045 74.5571 35.625C73.2503 35.0341 72.2162 34.1648 71.4548 33.017C70.7048 31.858 70.3298 30.4148 70.3298 28.6875C70.3298 27.233 70.5969 26.0114 71.131 25.0227C71.6651 24.0341 72.3923 23.2386 73.3128 22.6364C74.2332 22.0341 75.2787 21.5795 76.4492 21.2727C77.631 20.9659 78.8696 20.75 80.1651 20.625C81.6878 20.4659 82.9151 20.3182 83.8469 20.1818C84.7787 20.0341 85.4548 19.8182 85.8753 19.5341C86.2957 19.25 86.506 18.8295 86.506 18.2727V18.1705C86.506 17.0909 86.1651 16.2557 85.4832 15.6648C84.8128 15.0739 83.8582 14.7784 82.6196 14.7784C81.3128 14.7784 80.273 15.0682 79.5003 15.6477C78.7276 16.2159 78.2162 16.9318 77.9662 17.7955L71.2503 17.25C71.5912 15.6591 72.2617 14.2841 73.2617 13.125C74.2617 11.9545 75.5514 11.0568 77.131 10.4318C78.7219 9.79545 80.5628 9.47727 82.6537 9.47727C84.1082 9.47727 85.5003 9.64773 86.8298 9.98864C88.1707 10.3295 89.3582 10.858 90.3923 11.5739C91.4378 12.2898 92.2617 13.2102 92.8639 14.3352C93.4662 15.4489 93.7673 16.7841 93.7673 18.3409V36H86.881V32.3693H86.6764C86.256 33.1875 85.6935 33.9091 84.9889 34.5341C84.2844 35.1477 83.4378 35.6307 82.4492 35.983C81.4605 36.3239 80.3185 36.4943 79.023 36.4943ZM81.1026 31.483C82.1707 31.483 83.1139 31.2727 83.9321 30.8523C84.7503 30.4205 85.3923 29.8409 85.8582 29.1136C86.3242 28.3864 86.5571 27.5625 86.5571 26.642V23.8636C86.3298 24.0114 86.0173 24.1477 85.6196 24.2727C85.2332 24.3864 84.7957 24.4943 84.3071 24.5966C83.8185 24.6875 83.3298 24.7727 82.8412 24.8523C82.3526 24.9205 81.9094 24.983 81.5117 25.0398C80.6594 25.1648 79.9151 25.3636 79.2787 25.6364C78.6423 25.9091 78.148 26.2784 77.7957 26.7443C77.4435 27.1989 77.2673 27.767 77.2673 28.4489C77.2673 29.4375 77.6253 30.1932 78.3412 30.7159C79.0685 31.2273 79.9889 31.483 81.1026 31.483ZM104.262 20.8636V36H97.0009V9.81818H103.921V14.4375H104.228C104.808 12.9148 105.779 11.7102 107.143 10.8239C108.507 9.92614 110.16 9.47727 112.103 9.47727C113.921 9.47727 115.507 9.875 116.859 10.6705C118.211 11.4659 119.262 12.6023 120.012 14.0795C120.762 15.5455 121.137 17.2955 121.137 19.3295V36H113.876V20.625C113.887 19.0227 113.478 17.7727 112.649 16.875C111.819 15.9659 110.677 15.5114 109.222 15.5114C108.245 15.5114 107.382 15.7216 106.632 16.142C105.893 16.5625 105.313 17.1761 104.893 17.983C104.484 18.7784 104.274 19.7386 104.262 20.8636ZM121.064 7.17614V1.09091H149.734V7.17614H139.047V36H131.751V7.17614H121.064ZM160.055 36.5114C157.361 36.5114 155.043 35.9659 153.1 34.875C151.168 33.7727 149.68 32.2159 148.634 30.2045C147.589 28.1818 147.066 25.7898 147.066 23.0284C147.066 20.3352 147.589 17.9716 148.634 15.9375C149.68 13.9034 151.151 12.3182 153.049 11.1818C154.958 10.0455 157.197 9.47727 159.765 9.47727C161.492 9.47727 163.1 9.75568 164.589 10.3125C166.089 10.858 167.395 11.6818 168.509 12.7841C169.634 13.8864 170.509 15.2727 171.134 16.9432C171.759 18.6023 172.072 20.5455 172.072 22.7727V24.767H149.964V20.267H165.236C165.236 19.2216 165.009 18.2955 164.555 17.4886C164.1 16.6818 163.469 16.0511 162.663 15.5966C161.867 15.1307 160.941 14.8977 159.884 14.8977C158.782 14.8977 157.805 15.1534 156.952 15.6648C156.111 16.1648 155.452 16.8409 154.975 17.6932C154.498 18.5341 154.253 19.4716 154.242 20.5057V24.7841C154.242 26.0795 154.481 27.1989 154.958 28.142C155.447 29.0852 156.134 29.8125 157.02 30.3239C157.907 30.8352 158.958 31.0909 160.174 31.0909C160.981 31.0909 161.719 30.9773 162.39 30.75C163.06 30.5227 163.634 30.1818 164.111 29.7273C164.589 29.2727 164.952 28.7159 165.202 28.0568L171.918 28.5C171.577 30.1136 170.878 31.5227 169.822 32.7273C168.776 33.9205 167.424 34.8523 165.765 35.5227C164.117 36.1818 162.214 36.5114 160.055 36.5114ZM186.24 36.5114C183.558 36.5114 181.251 35.9432 179.319 34.8068C177.399 33.6591 175.922 32.0682 174.887 30.0341C173.865 28 173.353 25.6591 173.353 23.0114C173.353 20.3295 173.87 17.9773 174.905 15.9545C175.95 13.9205 177.433 12.3352 179.353 11.1989C181.274 10.0511 183.558 9.47727 186.206 9.47727C188.49 9.47727 190.49 9.89205 192.206 10.7216C193.922 11.5511 195.28 12.7159 196.28 14.2159C197.28 15.7159 197.831 17.4773 197.933 19.5H191.081C190.887 18.1932 190.376 17.142 189.547 16.3466C188.728 15.5398 187.655 15.1364 186.325 15.1364C185.2 15.1364 184.217 15.4432 183.376 16.0568C182.547 16.6591 181.899 17.5398 181.433 18.6989C180.967 19.858 180.734 21.2614 180.734 22.9091C180.734 24.5795 180.961 26 181.416 27.1705C181.882 28.3409 182.535 29.233 183.376 29.8466C184.217 30.4602 185.2 30.767 186.325 30.767C187.155 30.767 187.899 30.5966 188.558 30.2557C189.228 29.9148 189.78 29.4205 190.211 28.7727C190.655 28.1136 190.944 27.3239 191.081 26.4034H197.933C197.819 28.4034 197.274 30.1648 196.297 31.6875C195.331 33.1989 193.995 34.3807 192.291 35.233C190.586 36.0852 188.569 36.5114 186.24 36.5114ZM207.443 20.8636V36H200.182V1.09091H207.239V14.4375H207.546C208.137 12.892 209.091 11.6818 210.409 10.8068C211.728 9.92045 213.381 9.47727 215.37 9.47727C217.188 9.47727 218.773 9.875 220.125 10.6705C221.489 11.4545 222.546 12.5852 223.296 14.0625C224.057 15.5284 224.432 17.2841 224.421 19.3295V36H217.159V20.625C217.171 19.0114 216.762 17.7557 215.932 16.858C215.114 15.9602 213.966 15.5114 212.489 15.5114C211.5 15.5114 210.625 15.7216 209.864 16.142C209.114 16.5625 208.523 17.1761 208.091 17.983C207.671 18.7784 207.455 19.7386 207.443 20.8636Z" fill="url(#paint0_linear_14_378)"/>
<defs>
<linearGradient id="paint0_linear_14_378" x1="113" y1="-10" x2="113" y2="48" gradientUnits="userSpaceOnUse">
<stop stop-color="white"/>
<stop offset="1" stop-color="white" stop-opacity="0"/>
</linearGradient>
</defs>
</svg>
