<svg width="80" height="102" viewBox="0 0 80 102" fill="none" xmlns="http://www.w3.org/2000/svg">
<path fill-rule="evenodd" clip-rule="evenodd" d="M9.09091 0H25.4545C35.4961 0 43.6364 8.15481 43.6364 18.2143V27.3214C43.6364 32.3512 47.7065 36.4286 52.7273 36.4286H61.8182C71.8597 36.4286 80 44.5834 80 54.6429V92.8929C80 97.9226 75.9299 102 70.9091 102H9.09091C4.07014 102 0 97.9226 0 92.8929V9.10714C0 4.0774 4.07014 0 9.09091 0ZM42.5713 48.4241C41.8894 47.7409 40.9644 47.3571 40 47.3571C39.0356 47.3571 38.1107 47.7409 37.4287 48.4241L22.8832 62.9955C21.4632 64.4182 21.4632 66.7247 22.8832 68.1473C24.3033 69.5699 26.6058 69.5699 28.0258 68.1473L36.3636 59.7946L36.3636 80.1429C36.3636 82.1547 37.9917 83.7857 40 83.7857C42.0083 83.7857 43.6364 82.1547 43.6364 80.1429L43.6364 59.7946L51.9742 68.1473C53.3942 69.5699 55.6967 69.5699 57.1168 68.1473C58.5368 66.7247 58.5368 64.4182 57.1168 62.9955L42.5713 48.4241Z" fill="#A7A7A7"/>
<path d="M50.9091 18.2143C50.9091 11.8366 48.5719 6.00575 44.7088 1.53439C61.1885 5.8469 74.1635 18.8451 78.4683 35.3542C74.005 31.4842 68.1845 29.1429 61.8182 29.1429H52.7273C51.7231 29.1429 50.9091 28.3274 50.9091 27.3214V18.2143Z" fill="#A7A7A7"/>
</svg>
